<svg width="24.000000" height="22.498169" viewBox="0 0 24 22.4982" fill="none" xmlns="http://www.w3.org/2000/svg" xmlns:xlink="http://www.w3.org/1999/xlink">
	<desc>
			Created with Pixso.
	</desc>
	<defs>
		<clipPath id="clip1_279">
			<rect width="24.000000" height="22.498169" fill="white" fill-opacity="0"/>
		</clipPath>
	</defs>
	<rect width="24.000000" height="22.498169" fill="#FFFFFF" fill-opacity="0"/>
	<g clip-path="url(#clip1_279)">
		<path d="M5.05939 3.74976C5.05884 3.74976 5.05823 3.74976 5.05768 3.74976C4.86853 3.74976 4.69061 3.81891 4.55627 3.94452C4.42047 4.07153 4.34564 4.2406 4.34564 4.42065L4.34564 14.4808C4.34564 14.8497 4.66705 15.1506 5.06219 15.1516C6.72809 15.1553 9.51904 15.4807 11.4445 17.3695L11.4445 6.84131C11.4445 6.71625 11.4104 6.59875 11.3461 6.50159C9.76581 4.11591 6.729 3.75342 5.05939 3.74976Z" fill="currentColor" fill-opacity="1.000000" fill-rule="nonzero"/>
		<path d="M19.6544 14.4808L19.6544 4.42059C19.6544 4.24054 19.5796 4.07147 19.4438 3.94446C19.3094 3.81885 19.1313 3.74969 18.9424 3.74969C18.9418 3.74969 18.9412 3.74969 18.9407 3.74969C17.2711 3.75342 14.2343 4.11591 12.654 6.50159C12.5897 6.59875 12.5557 6.71625 12.5557 6.84131L12.5557 17.3694C14.4811 15.4807 17.272 15.1552 18.9379 15.1514C19.333 15.1505 19.6544 14.8497 19.6544 14.4808Z" fill="currentColor" fill-opacity="1.000000" fill-rule="nonzero"/>
		<path d="M21.2845 6.06976L20.7656 6.06976L20.7656 14.4808C20.7656 15.4227 19.9469 16.1907 18.9406 16.1931C17.5275 16.1962 15.1977 16.4553 13.5477 17.9192C16.4014 17.2642 19.4098 17.69 21.1243 18.0563C21.3383 18.102 21.5596 18.0547 21.7311 17.9266C21.902 17.7988 22 17.6077 22 17.4026L22 6.74054C22.0001 6.37067 21.679 6.06976 21.2845 6.06976Z" fill="currentColor" fill-opacity="1.000000" fill-rule="nonzero"/>
		<path d="M3.2345 14.4808L3.2345 6.06976L2.71558 6.06976C2.32111 6.06976 2 6.37067 2 6.74054L2 17.4024C2 17.6075 2.09802 17.7986 2.26898 17.9265C2.44037 18.0545 2.66138 18.1019 2.87573 18.0561C4.59027 17.6898 7.59869 17.264 10.4523 17.9191C8.80231 16.4551 6.47247 16.1962 5.05945 16.1931C4.05322 16.1907 3.2345 15.4227 3.2345 14.4808Z" fill="currentColor" fill-opacity="1.000000" fill-rule="nonzero"/>
	</g>
</svg>
