<svg width="24.000000" height="24.000000" viewBox="0 0 24 24" fill="none" xmlns="http://www.w3.org/2000/svg" xmlns:xlink="http://www.w3.org/1999/xlink">
	<desc>
			Created with Pixso.
	</desc>
	<defs>
		<clipPath id="clip1_27">
			<rect width="24.000000" height="24.000000" fill="white" fill-opacity="0"/>
		</clipPath>
	</defs>
	<rect width="24.000000" height="24.000000" fill="#FFFFFF" fill-opacity="0"/>
	<g clip-path="url(#clip1_27)">
		<path d="M12 12.892L5.67188 10.351L5.67188 12.1868C5.67188 14.1911 8.39233 15.7024 12 15.7024C15.6077 15.7024 18.3281 14.1911 18.3281 12.1868L18.3281 10.351L12 12.892Z" fill="#7653FC" fill-opacity="1.000000" fill-rule="nonzero"/>
		<path d="M24 16.4055C24 15.4901 23.4104 14.7169 22.5938 14.4257L22.5938 7.1416L24 6.56177L12 1.74707L0 6.56177L12 11.3765L21.1875 7.70624L21.1875 14.4257C20.3708 14.7169 19.7812 15.4901 19.7812 16.4055C19.7812 17.2437 20.2762 17.9631 20.986 18.3031L19.8177 21.808L21.1511 22.253L21.8906 20.0345L22.6301 22.253L23.9636 21.808L22.7953 18.3031C23.505 17.9631 24 17.2437 24 16.4055Z" fill="currentColor" />
	</g>
</svg>
