<svg width="159.000000" height="42.870850" viewBox="0 0 159 42.8708" fill="none" xmlns="http://www.w3.org/2000/svg" xmlns:xlink="http://www.w3.org/1999/xlink">
	<desc>
			Created with Pixso.
	</desc>
	<defs/>
	<path d="M71.1411 23.1337Q71.1411 26.4589 70.0425 28.9344Q68.9512 31.41 66.6953 32.7943Q64.4468 34.1713 60.9385 34.1713Q57.4595 34.1713 55.1963 32.7943Q52.9331 31.41 51.8345 28.9198Q50.7432 26.4296 50.7432 23.1044Q50.7432 19.7719 51.8345 17.3109Q52.9331 14.85 55.1963 13.4877Q57.4595 12.118 60.9678 12.118Q64.4468 12.118 66.6953 13.4877Q68.9512 14.85 70.0425 17.3256Q71.1411 19.8011 71.1411 23.1337ZM55.5112 23.1337Q55.5112 26.4882 56.8003 28.4291Q58.0894 30.3627 60.9385 30.3627Q63.8535 30.3627 65.1133 28.4291Q66.373 26.4882 66.373 23.1337Q66.373 19.7426 65.1133 17.8236Q63.8535 15.9047 60.9678 15.9047Q58.0894 15.9047 56.8003 17.8236Q55.5112 19.7426 55.5112 23.1337ZM101.591 12.4476L96.1274 33.871L90.9711 33.871L88.0634 22.621Q87.9682 22.2914 87.829 21.6322Q87.6972 20.973 87.5287 20.1967Q87.3676 19.413 87.2504 18.7098Q87.1332 17.9994 87.0673 17.6112Q87.038 17.9994 86.8988 18.7098Q86.767 19.413 86.6132 20.182Q86.4667 20.9437 86.3129 21.6176Q86.1664 22.2914 86.0785 22.6503L83.2001 33.871L78.0365 33.871L72.58 12.4476L77.0478 12.4476L79.7797 24.1517Q79.9628 24.8402 80.1679 25.8949Q80.3803 26.9423 80.5561 27.9969Q80.7392 29.0443 80.8271 29.7621Q80.9223 29.0077 81.0981 27.975Q81.2812 26.9423 81.4716 25.9681Q81.6694 24.994 81.8232 24.452L84.9433 12.4476L89.228 12.4476L92.3481 24.452Q92.5019 24.9574 92.6923 25.9535Q92.8901 26.9423 93.0658 27.9969Q93.2489 29.0443 93.3368 29.7621Q93.4321 29.0077 93.6078 27.975Q93.7909 26.9423 94.0107 25.8949Q94.2377 24.8402 94.3915 24.1517L97.1235 12.4476L101.591 12.4476ZM104.293 33.871L104.293 12.4476L108.819 12.4476L108.819 30.121L117.52 30.121L117.52 33.871L104.293 33.871Z" fill="#7653FC" fill-opacity="1.000000" fill-rule="evenodd"/>
	<path d="M128.35 32.2733Q128.906 32.2733 129.369 32.203Q129.838 32.1268 130.225 31.9803L130.225 32.7772Q129.838 32.9178 129.357 33.0116Q128.883 33.1112 128.279 33.1112Q126.621 33.1112 125.9 32.1737Q125.186 31.2362 125.186 29.4374L125.186 20.9647L123.264 20.9647L123.264 20.3436L125.186 20.1268L125.473 17.0565L126.117 17.0565L126.117 20.1503L130.154 20.1503L130.154 20.9647L126.117 20.9647L126.117 29.3671Q126.117 30.785 126.609 31.5292Q127.102 32.2733 128.35 32.2733ZM143.399 26.5135Q143.399 28.4296 142.784 29.9178Q142.175 31.4061 140.927 32.2616Q139.679 33.1112 137.809 33.1112Q136.011 33.1112 134.774 32.2733Q133.538 31.4296 132.899 29.9413Q132.267 28.453 132.267 26.5135Q132.267 23.4608 133.767 21.6854Q135.267 19.91 137.927 19.91Q139.825 19.91 141.02 20.7772Q142.222 21.6385 142.808 23.1268Q143.399 24.6151 143.399 26.5135ZM133.222 26.5135Q133.222 29.08 134.347 30.6796Q135.477 32.2733 137.809 32.2733Q139.415 32.2733 140.446 31.5409Q141.477 30.8085 141.958 29.5135Q142.438 28.2128 142.438 26.5135Q142.438 24.8788 141.981 23.5839Q141.53 22.2889 140.534 21.5214Q139.538 20.7538 137.927 20.7538Q135.647 20.7538 134.434 22.2772Q133.222 23.8007 133.222 26.5135ZM152.451 19.91Q154.947 19.91 156.277 21.5682Q157.607 23.2206 157.607 26.4139Q157.607 29.6307 156.189 31.371Q154.777 33.1112 152.257 33.1112Q150.459 33.1112 149.386 32.2968Q148.32 31.4764 147.886 30.328L147.839 30.328Q147.863 31.0487 147.875 31.8046Q147.886 32.5604 147.886 33.2577L147.886 38.4843L146.978 38.4843L146.978 20.1503L147.746 20.1503L147.839 22.9335L147.886 22.9335Q148.173 22.1425 148.771 21.4628Q149.375 20.7772 150.289 20.3436Q151.203 19.91 152.451 19.91ZM152.375 20.7538Q150.142 20.7538 149.023 22.2303Q147.91 23.701 147.886 26.4139L147.886 26.5604Q147.886 29.4608 149.011 30.8671Q150.142 32.2733 152.211 32.2733Q154.32 32.2733 155.48 30.7616Q156.646 29.2499 156.646 26.4139Q156.646 20.7538 152.375 20.7538Z" fill="#7653FC" fill-opacity="1.000000" fill-rule="evenodd"/>
	<path d="M41 1.17932C41 0.528076 40.4622 0 39.7988 0C39.1354 0 38.5977 0.528076 38.5977 1.17932C38.5977 2.45801 37.4609 3.53809 36.1152 3.53809L30.6968 3.53809C27.6077 1.99438 24.0892 1.17944 20.5 1.17944C16.9108 1.17944 13.3923 1.99438 10.3032 3.53809L4.89941 3.53809C3.54584 3.53821 2.40234 2.45801 2.40234 1.17932C2.40234 0.528076 1.86456 0 1.20117 0C0.537781 0 0 0.528076 0 1.17932L0 4.71741C0 6.9054 0.881958 8.96716 2.48389 10.5289C0.856018 13.1417 0 16.0044 0 18.8695C0 28.6238 9.19623 36.5596 20.5 36.5596C31.8038 36.5596 41 28.6238 41 18.8695C41 16.0088 40.1464 13.15 38.523 10.5402C40.0529 9.04626 41 6.98743 41 4.71753L41 1.17932ZM20.5001 3.53821C22.4136 3.53821 24.3025 3.79639 26.0992 4.29565C24.7576 4.82361 23.5261 5.61792 22.474 6.65259C21.6722 7.44092 21.0131 8.33142 20.5074 9.29358C20.0016 8.33142 19.3425 7.44092 18.5407 6.65259C17.487 5.61633 16.2535 4.82117 14.9094 4.29333C16.7036 3.79553 18.5895 3.53821 20.5001 3.53821ZM20.5 23.1174C20.9492 23.8494 21.5108 24.5074 22.1611 25.069L20.5 28.1451L18.8389 25.0688C19.4892 24.5074 20.0508 23.8492 20.5 23.1174ZM13.293 24.7662C9.98132 24.7662 7.28711 22.121 7.28711 18.8695C7.28711 15.618 9.98132 12.9728 13.293 12.9728C16.6046 12.9728 19.2988 15.618 19.2988 18.8695C19.2988 22.121 16.6046 24.7662 13.293 24.7662ZM21.7012 18.8695C21.7012 18.7758 21.704 18.6825 21.7084 18.5897C21.7167 18.5334 21.7225 18.4762 21.7223 18.4175L21.7223 18.395C21.9695 15.3649 24.5582 12.9728 27.707 12.9728C31.0187 12.9728 33.7129 15.618 33.7129 18.8695C33.7129 22.121 31.0187 24.7662 27.707 24.7662C24.3954 24.7662 21.7012 22.121 21.7012 18.8695ZM2.42621 5.24133C3.17279 5.6687 4.02118 5.89685 4.89941 5.89685L10.5791 5.89685L10.585 5.89685L10.8906 5.89685C13.139 5.89685 15.2521 6.75708 16.8407 8.31921C18.1513 9.60791 18.9742 11.2466 19.2205 13.0201C17.8662 11.6973 16.0568 10.8237 14.046 10.6477C13.956 10.6265 13.8627 10.6141 13.7662 10.6141L8.50287 10.6141C7.19067 10.6141 5.97455 10.2109 4.97845 9.52698C4.91425 9.45422 4.84106 9.38708 4.75677 9.32959C4.70068 9.29138 4.64203 9.25964 4.58221 9.23193C3.38013 8.255 2.57227 6.83862 2.42621 5.24133ZM38.5977 18.8695C38.5977 27.3232 30.4791 34.2008 20.5 34.2008C10.5209 34.2008 2.40234 27.3232 2.40234 18.8695C2.40234 16.5099 3.09583 14.1387 4.41687 11.9492C5.36261 12.4579 6.39807 12.7855 7.47772 12.9127C5.88062 14.4161 4.88477 16.5308 4.88477 18.8695C4.88477 23.4215 8.65668 27.1249 13.293 27.1249C14.5513 27.1249 15.7457 26.8516 16.8185 26.363L19.4387 31.2153C19.6471 31.6011 20.0553 31.8423 20.5 31.8423C20.9447 31.8423 21.3529 31.6011 21.5613 31.2153L24.1815 26.363C25.2543 26.8516 26.4487 27.1249 27.707 27.1249C32.3433 27.1249 36.1152 23.4215 36.1152 18.8695C36.1152 16.5315 35.1199 14.4175 33.5237 12.9139C34.6228 12.7864 35.6581 12.454 36.5878 11.9568C37.9058 14.1443 38.5977 16.5129 38.5977 18.8695ZM36.3987 9.25085C36.3475 9.27588 36.2972 9.30359 36.2489 9.33643C36.1712 9.38953 36.1028 9.45056 36.0421 9.51672C35.0457 10.2068 33.8271 10.6141 32.5117 10.6141L27.2484 10.6141C27.1547 10.6141 27.0639 10.6256 26.9764 10.6456C24.9648 10.8164 23.1538 11.6853 21.7964 13.004C22.0453 11.2366 22.8672 9.604 24.1739 8.31909C25.7625 6.75708 27.8756 5.89673 30.124 5.89673L30.3958 5.89673C30.3984 5.89673 30.401 5.89697 30.4037 5.89697C30.406 5.89697 30.4083 5.89673 30.4106 5.89673L36.1152 5.89673C36.9885 5.89673 37.8315 5.6709 38.5732 5.24768C38.425 6.85291 37.6096 8.27466 36.3987 9.25085Z" fill="#7653FC" fill-opacity="1.000000" fill-rule="nonzero"/>
	<path d="M13.5 16.1189L12.4896 18.7097L9.22028 18.7098L11.8651 20.3113L10.855 22.9021L13.5 21.301L16.145 22.9021L15.1349 20.3113L17.7798 18.7098L14.5104 18.7097L13.5 16.1189Z" fill="#7653FC" fill-opacity="1.000000" fill-rule="nonzero"/>
	<path d="M27.5 16.1189L26.4896 18.7097L23.2203 18.7098L25.8651 20.3113L24.855 22.9021L27.5 21.301L30.145 22.9021L29.1349 20.3113L31.7798 18.7098L28.5104 18.7097L27.5 16.1189Z" fill="#7653FC" fill-opacity="1.000000" fill-rule="nonzero"/>
</svg>
