<svg width="24.000000" height="24.000000" viewBox="0 0 24 24" fill="none" xmlns="http://www.w3.org/2000/svg" xmlns:xlink="http://www.w3.org/1999/xlink">
	<desc>
			Created with Pixso.
	</desc>
	<defs>
		<clipPath id="clip1_13">
			<rect width="24.000000" height="24.000000" fill="white" fill-opacity="0"/>
		</clipPath>
	</defs>
	<rect width="24.000000" height="24.000000" fill="#FFFFFF" fill-opacity="0"/>
	<g clip-path="url(#clip1_13)">
		<path d="M19.6537 8.76154C19.7086 8.47064 19.7363 8.17383 19.7363 7.875C19.7363 5.18677 17.4891 3 14.7266 3C12.9631 3 11.3286 3.91406 10.4305 5.36664C9.21832 4.98419 7.97461 5.14819 6.94995 5.83533C5.92523 6.52185 5.31372 7.60895 5.26422 8.79755C3.91718 9.4201 3 10.7457 3 12.2083C3 12.4622 3.06317 12.7098 3.11157 12.95L3.11212 12.9505C3.47198 14.7178 5.07941 16 6.93359 16L18.0664 16C20.2147 16 22 14.2988 22 12.2083C22 10.7299 21.0703 9.39899 19.6537 8.76154Z" fill="currentColor" fill-opacity="1.000000" fill-rule="nonzero"/>
	</g>
</svg>
